<?xml version="1.0" encoding="UTF-8"?>
<svg id="Layer_2" data-name="Layer 2" xmlns="http://www.w3.org/2000/svg" viewBox="0 0 395.44 352.08">
  <defs>
    <style>
      .cls-1 {
        fill: #d7e027;
        stroke-width: 0px;
      }
    </style>
  </defs>
  <g id="Layer_2-2" data-name="Layer 2">
    <g>
      <g>
        <path class="cls-1" d="M49.52,92.19l6.42,14.5-10.67,19.2-24.22-6.35,3.65-27.35h24.82M61.89,73.19H8.07L0,133.67l54.72,14.35,22.42-40.36-15.25-34.46h0Z"/>
        <path class="cls-1" d="M184.1,170.26l9.26,12.61,3.6,45.13-25.34,6.64-13.99,3.67-.19,14.46-.8,61.62-94.9-71.32,27.97-67.84,94.39-4.98M193.34,150.75l-116.63,6.15-38.15,92.53,136.59,102.64,1.28-99.05,40.73-10.68-5.3-66.37-18.53-25.22h0Z"/>
        <path class="cls-1" d="M260.83,36.55l109.48,56.19-20.74,107.63-94.48,1.69-2.76-2.76-7.09-56.97,24.48-10.41,15.24-6.48-4.34-15.98-19.79-72.92M231.22,0l31.06,114.45-37.68,16.02,9.67,77.67,13.08,13.08,117.95-2.12,26.36-136.75L231.22,0h0Z"/>
      </g>
      <g>
        <g>
          <path class="cls-1" d="M276.82,351.38l-5.74-38.8c-.17-1.17-.88-1.62-1.97-1.46l-14.34,2.12-3.39-22.9,26.33-3.89c8.8-1.3,15.02,3.59,16.25,11.93l7.31,49.39-24.46,3.62Z"/>
          <path class="cls-1" d="M344.3,317.76l-16.05,2.37.44,2.96,38.18-5.65,2.98,20.18-62.09,9.18-5.76-38.95,36.69-5.43c2.1-.31,2.76-1.28,2.57-2.53l-.05-.31c-.2-1.32-1.3-1.8-3.17-1.52l-36.69,5.43-2.97-20.1,39.97-5.91c16.98-2.51,24.89,4.12,26.83,17.21l.21,1.4c1.42,9.58-2.38,18.9-21.08,21.67Z"/>
        </g>
        <polygon class="cls-1" points="395.44 327.64 386.53 321.03 394.2 319.9 393.26 313.54 379.53 315.57 373.17 316.51 374.11 322.87 376.14 336.6 382.5 335.66 381.36 327.99 390.27 334.6 395.44 327.64"/>
      </g>
    </g>
  </g>
</svg>